<svg width="19" height="19" viewBox="0 0 19 19" fill="none" xmlns="http://www.w3.org/2000/svg">
<path d="M8.38195 0.927052C8.6813 0.00574112 9.98471 0.00573993 10.2841 0.927051L11.8027 5.60081C11.9365 6.01284 12.3205 6.2918 12.7537 6.2918H17.668C18.6367 6.2918 19.0395 7.53141 18.2558 8.10081L14.28 10.9894C13.9296 11.244 13.7829 11.6954 13.9168 12.1074L15.4354 16.7812C15.7347 17.7025 14.6802 18.4686 13.8965 17.8992L9.92079 15.0106C9.57031 14.756 9.09571 14.756 8.74522 15.0106L4.76948 17.8992C3.98577 18.4686 2.93129 17.7025 3.23064 16.7812L4.74924 12.1074C4.88311 11.6954 4.73645 11.244 4.38597 10.9894L0.410229 8.10081C-0.373485 7.53141 0.0292904 6.2918 0.998014 6.2918H5.9123C6.34552 6.2918 6.72948 6.01284 6.86335 5.60081L8.38195 0.927052Z" fill="#D9D9D9"/>
</svg>
